<svg xmlns="http://www.w3.org/2000/svg" viewBox="0 0 1200 720" role="img" aria-labelledby="title desc">
  <title id="title">Codex SEO audit screenshot</title>
  <desc id="desc">Illustrated plugin screenshot showing a site audit summary.</desc>
  <rect width="1200" height="720" fill="#f4efe7"/>
  <rect x="48" y="48" width="1104" height="624" rx="24" fill="#ffffff" stroke="#d8d2c5"/>
  <rect x="80" y="80" width="1040" height="76" rx="16" fill="#1e3a5f"/>
  <text x="120" y="126" font-family="Arial, sans-serif" font-size="34" fill="#faf9f7">/seo audit https://example.com</text>
  <rect x="80" y="188" width="308" height="204" rx="20" fill="#faf9f7" stroke="#e7decb"/>
  <text x="108" y="234" font-family="Arial, sans-serif" font-size="24" fill="#1e3a5f">Overall Score</text>
  <text x="108" y="336" font-family="Georgia, serif" font-size="92" fill="#2d6a4f">87</text>
  <rect x="420" y="188" width="700" height="204" rx="20" fill="#faf9f7" stroke="#e7decb"/>
  <text x="452" y="234" font-family="Arial, sans-serif" font-size="24" fill="#1e3a5f">Top Findings</text>
  <rect x="452" y="264" width="580" height="18" rx="9" fill="#c53030"/>
  <rect x="452" y="310" width="520" height="18" rx="9" fill="#d4740e"/>
  <rect x="452" y="356" width="610" height="18" rx="9" fill="#2d6a4f"/>
  <rect x="80" y="424" width="1040" height="216" rx="20" fill="#1e3a5f"/>
  <text x="112" y="470" font-family="Arial, sans-serif" font-size="24" fill="#faf9f7">Parallel specialist agents</text>
  <g font-family="Arial, sans-serif" font-size="22">
    <rect x="112" y="500" width="220" height="88" rx="16" fill="#27486d"/>
    <text x="138" y="552" fill="#faf9f7">Technical</text>
    <rect x="350" y="500" width="220" height="88" rx="16" fill="#27486d"/>
    <text x="385" y="552" fill="#faf9f7">Content</text>
    <rect x="588" y="500" width="220" height="88" rx="16" fill="#27486d"/>
    <text x="628" y="552" fill="#faf9f7">Schema</text>
    <rect x="826" y="500" width="220" height="88" rx="16" fill="#27486d"/>
    <text x="870" y="552" fill="#faf9f7">Backlinks</text>
  </g>
</svg>
